<svg id="Capa_1" enable-background="new 0 0 512 512" height="512" viewBox="0 0 512 512" width="512" xmlns="http://www.w3.org/2000/svg"><g><g><circle cx="398.62" cy="86.963" fill="#e28086" r="86.963"/></g><g><path d="m444.123 12.852c8.146 13.238 12.852 28.819 12.852 45.503 0 48.028-38.935 86.963-86.963 86.963-16.684 0-32.265-4.707-45.503-12.853 15.303 24.871 42.766 41.46 74.11 41.46 48.028 0 86.963-38.935 86.963-86.963.001-31.344-16.588-58.806-41.459-74.11z" fill="#dd636e"/></g><g><g><path d="m371.562 118.466c-1.03 0-2.075-.208-3.078-.649-3.872-1.702-5.631-6.221-3.929-10.093l16.951-38.562h-15.39c-4.229 0-7.658-3.428-7.658-7.658s3.429-7.658 7.658-7.658h27.122c2.587 0 4.999 1.306 6.413 3.472s1.639 4.9.598 7.268l-21.672 49.302c-1.261 2.869-4.07 4.578-7.015 4.578z" fill="#f4fbff"/></g></g><g><g><path d="m430.188 119.949c-12.084 0-21.915-9.831-21.915-21.916v-22.8c0-12.084 9.831-21.915 21.915-21.915s21.916 9.831 21.916 21.915v22.8c0 12.085-9.832 21.916-21.916 21.916zm0-51.314c-3.639 0-6.599 2.96-6.599 6.598v22.8c0 3.639 2.96 6.599 6.599 6.599s6.599-2.961 6.599-6.599v-22.8c0-3.639-2.961-6.598-6.599-6.598z" fill="#f4fbff"/></g></g><g><circle cx="259.741" cy="245.051" fill="#ffe07d" r="184.76"/></g><g><path d="m372.495 98.69c24.071 31.199 38.399 70.3 38.399 112.754 0 102.04-82.72 184.76-184.76 184.76-42.453 0-81.555-14.328-112.754-38.399 33.786 43.791 86.774 72.006 146.361 72.006 102.04 0 184.76-82.72 184.76-184.76 0-59.587-28.215-112.575-72.006-146.361z" fill="#ffd064"/></g><g><circle cx="259.741" cy="245.051" fill="#f4fbff" r="152.217"/></g><g><path d="m354.573 125.988c20.747 26.014 33.154 58.972 33.154 94.832 0 84.067-68.15 152.217-152.217 152.217-35.86 0-68.818-12.407-94.832-33.154 27.89 34.97 70.856 57.385 119.063 57.385 84.067 0 152.217-68.15 152.217-152.217 0-48.207-22.415-91.173-57.385-119.063z" fill="#e4f6ff"/></g><path d="m216.511 364.319c-.922 0-1.859-.168-2.77-.522-8.898-3.454-17.427-7.926-25.349-13.292-3.502-2.372-4.418-7.134-2.047-10.636 2.372-3.502 7.133-4.418 10.636-2.046 6.972 4.723 14.475 8.657 22.303 11.697 3.943 1.531 5.898 5.968 4.368 9.911-1.177 3.031-4.073 4.888-7.141 4.888zm-49.343-35.766c-2.214 0-4.41-.954-5.924-2.799-6.071-7.397-11.302-15.479-15.548-24.023-1.882-3.787-.338-8.384 3.45-10.266 3.789-1.885 8.384-.338 10.266 3.449 3.733 7.511 8.332 14.616 13.672 21.121 2.683 3.27 2.208 8.095-1.061 10.778-1.425 1.17-3.145 1.74-4.855 1.74zm-25.342-55.4c-3.659 0-6.895-2.63-7.538-6.358-.376-2.181-.702-4.408-.966-6.616-.606-5.067-.914-10.207-.914-15.278 0-2.213.059-4.455.175-6.665.222-4.224 3.833-7.485 8.05-7.245 4.224.221 7.468 3.825 7.246 8.049-.102 1.943-.154 3.916-.154 5.861 0 4.464.271 8.992.805 13.457.233 1.948.52 3.912.852 5.834.718 4.167-2.077 8.129-6.245 8.848-.441.076-.879.113-1.311.113zm5.206-60.72c-.857 0-1.729-.145-2.582-.451-3.982-1.426-6.053-5.811-4.627-9.792 3.218-8.984 7.465-17.627 12.622-25.69 2.279-3.565 7.015-4.606 10.578-2.325 3.563 2.28 4.604 7.015 2.325 10.578-4.539 7.096-8.275 14.701-11.106 22.603-1.121 3.128-4.067 5.077-7.21 5.077zm216.956-18.551c-2.672 0-5.267-1.4-6.675-3.893-4.125-7.303-9.094-14.159-14.769-20.375-2.852-3.124-2.631-7.968.493-10.819 3.123-2.854 7.967-2.632 10.819.493 6.451 7.068 12.101 14.863 16.793 23.169 2.08 3.683.781 8.354-2.902 10.434-1.19.672-2.483.991-3.759.991zm-182.493-31.72c-2.145 0-4.279-.896-5.793-2.645-2.769-3.198-2.421-8.034.777-10.802 7.233-6.262 15.174-11.705 23.603-16.177 3.734-1.984 8.372-.561 10.354 3.175s.561 8.372-3.175 10.355c-7.411 3.933-14.395 8.719-20.756 14.227-1.449 1.253-3.234 1.867-5.01 1.867zm139.991-11.956c-1.347 0-2.711-.355-3.949-1.102-7.212-4.352-14.912-7.888-22.885-10.508-4.018-1.32-6.205-5.649-4.884-9.667 1.321-4.019 5.647-6.204 9.667-4.884 9.066 2.98 17.819 6.998 26.016 11.944 3.621 2.186 4.785 6.892 2.6 10.514-1.439 2.384-3.97 3.703-6.565 3.703zm-85.289-14.828c-3.578 0-6.776-2.519-7.502-6.161-.827-4.148 1.865-8.181 6.012-9.008 3.268-.651 6.602-1.182 9.909-1.577 6.177-.739 12.445-1.032 18.593-.87 4.228.11 7.567 3.626 7.457 7.854-.11 4.229-3.665 7.586-7.854 7.457-5.414-.14-10.933.116-16.379.768-2.915.347-5.851.815-8.73 1.389-.505.1-1.009.148-1.506.148z" fill="#365e7d"/><g><g><path d="m234.896 313.606c-.988 0-1.992-.192-2.961-.598-3.9-1.637-5.735-6.126-4.098-10.026l51.345-122.344c1.637-3.899 6.123-5.734 10.025-4.098 3.9 1.637 5.735 6.126 4.098 10.026l-51.345 122.344c-1.23 2.931-4.072 4.696-7.064 4.696z" fill="#2b4d66"/></g><g><path d="m225.069 238.285c-16.732 0-30.345-15.262-30.345-34.021s13.613-34.021 30.345-34.021 30.345 15.262 30.345 34.021-13.612 34.021-30.345 34.021zm0-52.726c-8.287 0-15.029 8.391-15.029 18.705s6.742 18.705 15.029 18.705 15.029-8.391 15.029-18.705-6.742-18.705-15.029-18.705z" fill="#2b4d66"/></g><g><path d="m294.413 321.934c-16.732 0-30.345-15.262-30.345-34.021 0-18.76 13.613-34.021 30.345-34.021s30.345 15.262 30.345 34.021-13.613 34.021-30.345 34.021zm0-52.727c-8.287 0-15.029 8.391-15.029 18.705s6.742 18.705 15.029 18.705c8.286 0 15.028-8.391 15.028-18.705s-6.741-18.705-15.028-18.705z" fill="#2b4d66"/></g></g><g><circle cx="113.38" cy="348.512" fill="#80b4fb" r="86.963"/></g><g><path d="m158.883 274.401c8.146 13.238 12.852 28.819 12.852 45.503 0 48.028-38.935 86.963-86.963 86.963-16.684 0-32.265-4.707-45.503-12.853 15.303 24.871 42.766 41.46 74.11 41.46 48.028 0 86.963-38.935 86.963-86.963.001-31.344-16.588-58.806-41.459-74.11z" fill="#61a2f9"/></g><g><g><g><path d="m67.009 361.731h-10.277c-4.229 0-7.658-3.428-7.658-7.658s3.429-7.658 7.658-7.658h10.277c4.229 0 7.658 3.428 7.658 7.658 0 4.229-3.429 7.658-7.658 7.658z" fill="#f4fbff"/></g></g><g><g><path d="m97.384 382.098c-4.229 0-7.658-3.428-7.658-7.658v-44.857h-3.567c-4.229 0-7.658-3.428-7.658-7.658s3.429-7.658 7.658-7.658h11.225c4.229 0 7.658 3.428 7.658 7.658v52.515c0 4.229-3.428 7.658-7.658 7.658z" fill="#f4fbff"/></g></g><g><g><path d="m144.647 383.17c-12.596 0-22.844-10.248-22.844-22.844v-24.287c0-12.596 10.248-22.844 22.844-22.844 12.597 0 22.845 10.248 22.845 22.844v24.287c0 12.596-10.248 22.844-22.845 22.844zm0-54.659c-4.151 0-7.528 3.376-7.528 7.528v24.287c0 4.151 3.377 7.528 7.528 7.528s7.528-3.376 7.528-7.528v-24.287c0-4.152-3.377-7.528-7.528-7.528z" fill="#f4fbff"/></g></g></g><g fill="#365e7d"><path d="m259.591 372.384c-3.335 0-6.703-.133-10.011-.395-4.217-.334-7.364-4.023-7.03-8.239s4.027-7.345 8.239-7.03c7.328.581 14.852.428 22.258-.459.974-.117 1.949-.246 2.921-.388 4.185-.593 8.073 2.289 8.682 6.475.609 4.185-2.289 8.072-6.475 8.682-1.096.16-2.197.305-3.303.439-5.075.608-10.214.915-15.281.915z"/><path d="m310.175 361.265c-2.889 0-5.654-1.642-6.951-4.435-1.781-3.836-.116-8.389 3.72-10.171 7.613-3.535 14.841-7.946 21.484-13.114 3.338-2.598 8.15-1.996 10.746 1.343 2.597 3.339 1.995 8.15-1.343 10.746-7.555 5.876-15.777 10.895-24.437 14.917-1.042.485-2.14.714-3.219.714z"/><path d="m357.052 322.343c-1.543 0-3.1-.466-4.451-1.432-3.439-2.462-4.232-7.245-1.77-10.685 4.903-6.85 9.034-14.25 12.278-21.993 1.634-3.902 6.122-5.739 10.023-4.105s5.739 6.122 4.104 10.023c-3.687 8.801-8.38 17.209-13.95 24.99-1.495 2.09-3.847 3.202-6.234 3.202z"/><path d="m378.765 265.395c-.269 0-.54-.014-.814-.043-4.206-.445-7.255-4.215-6.811-8.421.409-3.877.617-7.824.617-11.731 0-4.465-.271-8.992-.805-13.456-.467-3.899-1.141-7.805-2.004-11.609-.935-4.125 1.65-8.228 5.775-9.163 4.123-.935 8.227 1.65 9.162 5.775.979 4.32 1.745 8.753 2.274 13.177.606 5.066.914 10.205.914 15.277 0 4.442-.236 8.931-.702 13.34-.415 3.932-3.738 6.854-7.606 6.854z"/></g><path d="m284.576 364.953c-10.376 3.531-21.257 5.967-32.504 7.184 2.501.148 5.016.247 7.519.247 5.067 0 10.206-.307 15.283-.914 1.106-.134 2.207-.279 3.303-.439 3.293-.48 5.781-2.992 6.399-6.078z" fill="#2b4d66"/><path d="m310.175 361.265c1.079 0 2.177-.229 3.22-.714 8.66-4.022 16.882-9.041 24.437-14.917 3.339-2.597 3.94-7.408 1.343-10.747-.405-.52-.868-.966-1.366-1.352-10.291 9.345-21.872 17.292-34.436 23.561 1.347 2.624 4.011 4.169 6.802 4.169z" fill="#2b4d66"/><path d="m373.816 284.457c-5.897 12.795-13.515 24.631-22.561 35.212.392.456.836.876 1.346 1.242 1.351.966 2.908 1.432 4.451 1.432 2.387 0 4.739-1.113 6.234-3.202 5.57-7.781 10.263-16.189 13.95-24.99 1.536-3.664.006-7.846-3.42-9.694z" fill="#2b4d66"/><path d="m386.372 258.54c.466-4.409.702-8.898.702-13.34 0-2.602-.084-5.221-.244-7.839-1.026 9.497-2.927 18.731-5.618 27.623 2.74-.931 4.836-3.376 5.16-6.444z" fill="#2b4d66"/><path d="m167.492 360.325v-13.533c-4.556 14.024-12.575 26.485-23.054 36.372.07.001.139.005.209.005 12.597.001 22.845-10.247 22.845-22.844z" fill="#e4f6ff"/><g><circle cx="215.432" cy="425.037" fill="#b3e59f" r="86.963"/></g><g><path d="m260.935 350.927c8.146 13.238 12.852 28.819 12.852 45.503 0 48.028-38.935 86.963-86.963 86.963-16.684 0-32.265-4.707-45.503-12.852 15.303 24.871 42.766 41.46 74.11 41.46 48.028 0 86.963-38.935 86.963-86.963.001-31.345-16.588-58.808-41.459-74.111z" fill="#95d6a4"/></g><g><g><g><path d="m198.206 457.844c-9.73 0-10.5-.257-11.521-.597-2.454-.818-4.362-2.756-5.109-5.187-1.266-4.116.671-6.652 3.88-10.854 2.494-3.266 7.138-9.346 14.921-20.467 2.526-3.609 3.559-6.15 3.975-7.719l.112-.877c-.193-2.559-2.337-4.581-4.943-4.581-2.364 0-4.41 1.677-4.864 3.989-.816 4.15-4.845 6.855-8.99 6.039-4.151-.816-6.854-4.84-6.039-8.99 1.861-9.476 10.227-16.354 19.894-16.354 11.179 0 20.274 9.095 20.274 20.274 0 .325-.02.649-.062.971l-.244 1.907c-.032.255-.078.509-.136.759-.962 4.148-3.125 8.644-6.427 13.364-3.781 5.403-6.842 9.648-9.288 12.975 3.372-.019 7.014-.053 10.492-.096.032-.001.066-.001.098-.001 4.185 0 7.603 3.365 7.656 7.563.053 4.229-3.333 7.7-7.562 7.753-7.116.089-12.305.129-16.117.129z" fill="#f4fbff"/></g></g><g><g><path d="m252.951 458.592c-12.084 0-21.915-9.831-21.915-21.915v-22.8c0-12.085 9.831-21.916 21.915-21.916s21.915 9.831 21.915 21.916v22.8c0 12.083-9.831 21.915-21.915 21.915zm0-51.315c-3.639 0-6.599 2.961-6.599 6.599v22.8c0 3.639 2.96 6.598 6.599 6.598s6.599-2.96 6.599-6.598v-22.8c0-3.638-2.96-6.599-6.599-6.599z" fill="#f4fbff"/></g></g><g><g><path d="m169.056 435.985h-10.277c-4.229 0-7.658-3.428-7.658-7.658s3.429-7.658 7.658-7.658h10.277c4.229 0 7.658 3.428 7.658 7.658 0 4.229-3.428 7.658-7.658 7.658z" fill="#f4fbff"/></g></g></g><path d="m274.866 436.677v-22.8c0-2.877-.563-5.623-1.575-8.142-2.167 20.367-11.362 38.634-25.117 52.327 1.539.344 3.136.531 4.777.531 12.084-.001 21.915-9.833 21.915-21.916z" fill="#e4f6ff"/><path d="m452.104 98.033v-10.926c-4.37 12.478-11.499 23.659-20.664 32.804 11.504-.652 20.664-10.214 20.664-21.878z" fill="#e4f6ff"/></g></svg>